<svg width="40" height="40" viewBox="0 0 40 40" fill="none" xmlns="http://www.w3.org/2000/svg">
<circle cx="20" cy="20" r="20" fill="#303A4D"/>
<g clip-path="url(#clip0_182_227)">
<path d="M25.8182 12H14.1818C13.6032 12 13.0482 12.2299 12.639 12.639C12.2299 13.0482 12 13.6032 12 14.1818V25.8182C12 26.3968 12.2299 26.9518 12.639 27.361C13.0482 27.7701 13.6032 28 14.1818 28H25.8182C26.3968 28 26.9518 27.7701 27.361 27.361C27.7701 26.9518 28 26.3968 28 25.8182V14.1818C28 13.6032 27.7701 13.0482 27.361 12.639C26.9518 12.2299 26.3968 12 25.8182 12ZM17.4545 24.6618C17.4547 24.7062 17.446 24.7501 17.4291 24.7912C17.4122 24.8322 17.3874 24.8695 17.3561 24.9009C17.3248 24.9323 17.2875 24.9572 17.2466 24.9742C17.2056 24.9912 17.1616 25 17.1173 25H15.68C15.6356 25.0001 15.5915 24.9915 15.5504 24.9745C15.5094 24.9575 15.472 24.9326 15.4406 24.9012C15.4092 24.8698 15.3843 24.8325 15.3673 24.7914C15.3504 24.7503 15.3417 24.7063 15.3418 24.6618V18.6364C15.3418 18.5467 15.3774 18.4607 15.4409 18.3972C15.5043 18.3338 15.5903 18.2982 15.68 18.2982H17.1173C17.2068 18.2984 17.2926 18.3342 17.3558 18.3976C17.419 18.4609 17.4545 18.5468 17.4545 18.6364V24.6618ZM16.3982 17.7273C16.1285 17.7273 15.8648 17.6473 15.6406 17.4975C15.4163 17.3476 15.2416 17.1346 15.1383 16.8855C15.0351 16.6363 15.0081 16.3621 15.0607 16.0976C15.1134 15.8331 15.2432 15.5901 15.4339 15.3994C15.6247 15.2087 15.8676 15.0788 16.1321 15.0262C16.3967 14.9736 16.6709 15.0006 16.92 15.1038C17.1692 15.207 17.3822 15.3818 17.532 15.606C17.6818 15.8303 17.7618 16.0939 17.7618 16.3636C17.7618 16.7253 17.6182 17.0721 17.3624 17.3279C17.1067 17.5836 16.7598 17.7273 16.3982 17.7273ZM24.9673 24.6855C24.9674 24.7263 24.9594 24.7668 24.9439 24.8046C24.9283 24.8424 24.9054 24.8767 24.8765 24.9056C24.8476 24.9345 24.8133 24.9574 24.7755 24.9729C24.7377 24.9885 24.6972 24.9965 24.6564 24.9964H23.1109C23.07 24.9965 23.0296 24.9885 22.9918 24.9729C22.954 24.9574 22.9197 24.9345 22.8908 24.9056C22.8619 24.8767 22.839 24.8424 22.8234 24.8046C22.8078 24.7668 22.7999 24.7263 22.8 24.6855V21.8627C22.8 21.4409 22.9236 20.0155 21.6973 20.0155C20.7473 20.0155 20.5536 20.9909 20.5155 21.4291V24.6891C20.5155 24.7708 20.4833 24.8492 20.426 24.9073C20.3687 24.9655 20.2908 24.9988 20.2091 25H18.7164C18.6756 25 18.6352 24.992 18.5975 24.9763C18.5599 24.9607 18.5256 24.9378 18.4968 24.9089C18.468 24.88 18.4452 24.8457 18.4297 24.808C18.4142 24.7703 18.4062 24.7299 18.4064 24.6891V18.61C18.4062 18.5692 18.4142 18.5288 18.4297 18.4911C18.4452 18.4534 18.468 18.4191 18.4968 18.3902C18.5256 18.3613 18.5599 18.3384 18.5975 18.3228C18.6352 18.3071 18.6756 18.2991 18.7164 18.2991H20.2091C20.2915 18.2991 20.3706 18.3318 20.4289 18.3902C20.4872 18.4485 20.52 18.5275 20.52 18.61V19.1355C20.8727 18.6055 21.3955 18.1982 22.5109 18.1982C24.9818 18.1982 24.9655 20.5055 24.9655 21.7727L24.9673 24.6855Z" fill="white"/>
</g>
<defs>
<clipPath id="clip0_182_227">
<rect width="16" height="16" fill="white" transform="translate(12 12)"/>
</clipPath>
</defs>
</svg>
