<svg width="40" height="40" viewBox="0 0 40 40" fill="none" xmlns="http://www.w3.org/2000/svg">
<circle cx="20" cy="20" r="20" fill="#303A4D"/>
<g clip-path="url(#clip0_182_213)">
<path d="M28.0002 14.9999C27.4002 15.2999 26.8002 15.3999 26.1002 15.4999C26.8002 15.0999 27.3002 14.4999 27.5002 13.6999C26.9002 14.0999 26.2002 14.2999 25.4002 14.4999C24.8002 13.8999 23.9002 13.4999 23.0002 13.4999C21.3002 13.4999 19.8002 14.9999 19.8002 16.7999C19.8002 17.0999 19.8002 17.2999 19.9002 17.4999C17.2002 17.3999 14.7002 16.0999 13.1002 14.0999C12.8002 14.5999 12.7002 15.0999 12.7002 15.7999C12.7002 16.8999 13.3002 17.8999 14.2002 18.4999C13.7002 18.4999 13.2002 18.2999 12.7002 18.0999C12.7002 19.6999 13.8002 20.9999 15.3002 21.2999C15.0002 21.3999 14.7002 21.3999 14.4002 21.3999C14.2002 21.3999 14.0002 21.3999 13.8002 21.2999C14.2002 22.5999 15.4002 23.5999 16.9002 23.5999C15.8002 24.4999 14.4002 24.9999 12.8002 24.9999C12.5002 24.9999 12.3002 24.9999 12.0002 24.9999C13.5002 25.8999 15.2002 26.4999 17.0002 26.4999C23.0002 26.4999 26.3002 21.4999 26.3002 17.1999C26.3002 17.0999 26.3002 16.8999 26.3002 16.7999C27.0002 16.2999 27.6002 15.6999 28.0002 14.9999Z" fill="white"/>
</g>
<defs>
<clipPath id="clip0_182_213">
<rect width="16" height="16" fill="white" transform="translate(12.0002 11.9999)"/>
</clipPath>
</defs>
</svg>
