<svg width="40" height="40" viewBox="0 0 40 40" fill="none" xmlns="http://www.w3.org/2000/svg">
<circle cx="20" cy="20" r="20" fill="#303A4D"/>
<g clip-path="url(#clip0_182_222)">
<path d="M27.8002 16.7999C27.6002 15.4999 27.0002 14.5999 25.6002 14.3999C23.4002 13.9999 20.0002 13.9999 20.0002 13.9999C20.0002 13.9999 16.6002 13.9999 14.4002 14.3999C13.0002 14.5999 12.3002 15.4999 12.2002 16.7999C12.0002 18.0999 12.0002 19.9999 12.0002 19.9999C12.0002 19.9999 12.0002 21.8999 12.2002 23.1999C12.4002 24.4999 13.0002 25.3999 14.4002 25.5999C16.6002 25.9999 20.0002 25.9999 20.0002 25.9999C20.0002 25.9999 23.4002 25.9999 25.6002 25.5999C27.0002 25.2999 27.6002 24.4999 27.8002 23.1999C28.0002 21.8999 28.0002 19.9999 28.0002 19.9999C28.0002 19.9999 28.0002 18.0999 27.8002 16.7999ZM18.0002 22.9999V16.9999L23.0002 19.9999L18.0002 22.9999Z" fill="white"/>
</g>
<defs>
<clipPath id="clip0_182_222">
<rect width="16" height="16" fill="white" transform="translate(12.0002 11.9999)"/>
</clipPath>
</defs>
</svg>
